<?xml version="1.0" encoding="UTF-8" standalone="no"?>
<!-- Created with Inkscape (http://www.inkscape.org/) -->

<svg
   version="1.1"
   id="svg1811"
   width="1600"
   height="1600"
   viewBox="0 0 1600 1600"
   sodipodi:docname="lion-stencil-art-publicdomain-pdv.svg"
   inkscape:version="1.2 (dc2aedaf03, 2022-05-15)"
   xmlns:inkscape="http://www.inkscape.org/namespaces/inkscape"
   xmlns:sodipodi="http://sodipodi.sourceforge.net/DTD/sodipodi-0.dtd"
   xmlns="http://www.w3.org/2000/svg"
   xmlns:svg="http://www.w3.org/2000/svg">
  <defs
     id="defs1815">
    <clipPath
       clipPathUnits="userSpaceOnUse"
       id="clipPath1827">
      <path
         d="M 0,1200 H 1200 V 0 H 0 Z"
         id="path1825" />
    </clipPath>
  </defs>
  <sodipodi:namedview
     id="namedview1813"
     pagecolor="#ffffff"
     bordercolor="#000000"
     borderopacity="0.25"
     inkscape:showpageshadow="2"
     inkscape:pageopacity="0.0"
     inkscape:pagecheckerboard="0"
     inkscape:deskcolor="#d1d1d1"
     showgrid="false"
     inkscape:zoom="0.523125"
     inkscape:cx="800"
     inkscape:cy="800.95579"
     inkscape:window-width="1920"
     inkscape:window-height="1017"
     inkscape:window-x="-8"
     inkscape:window-y="-8"
     inkscape:window-maximized="1"
     inkscape:current-layer="g1819">
    <inkscape:page
       x="0"
       y="0"
       id="page1817"
       width="1600"
       height="1600" />
  </sodipodi:namedview>
  <g
     id="g1819"
     inkscape:groupmode="layer"
     inkscape:label="Page 1"
     transform="matrix(1.3333333,0,0,-1.3333333,0,1600)">
    <g
       id="g1821">
      <g
         id="g1823"
         clip-path="url(#clipPath1827)">
        <g
           id="g1829"
           transform="translate(615.0371,530.2598)">
          <path
             d="m 0,0 c 5.613,-2.114 10.97,-4.446 16.317,-6.739 5.337,-2.3 10.625,-4.589 15.943,-6.694 5.318,-2.083 10.653,-4.06 16.098,-5.415 5.442,-1.313 10.998,-2.298 16.809,-0.742 -2.272,-2.02 -5.307,-3.148 -8.344,-3.767 -3.065,-0.581 -6.195,-0.601 -9.257,-0.344 -6.143,0.541 -12.024,2.256 -17.61,4.455 -5.589,2.22 -10.899,4.996 -15.934,8.175 C 9.011,-7.859 4.215,-4.293 0,0 m 26.044,36.402 c 8.642,-0.23 17.234,-0.787 25.708,-0.983 4.227,-0.086 8.448,-0.106 12.539,0.241 4.075,0.326 8.123,1.009 11.387,2.676 0.791,0.438 1.543,0.914 2.195,1.488 0.63,0.518 1.261,1.357 1.919,2.11 0.348,0.375 0.635,0.775 0.9,1.186 l 0.842,1.227 c 0.437,0.856 0.951,1.712 1.236,2.624 0.705,1.795 0.913,3.748 0.508,5.698 -0.201,0.973 -0.56,1.942 -1.087,2.84 -0.493,0.922 -1.141,1.78 -1.91,2.554 1.94,-1 3.632,-2.683 4.634,-4.817 1.029,-2.134 1.229,-4.674 0.832,-7.036 C 85.582,45 85.14,43.908 84.76,42.767 84.25,41.73 83.814,40.592 83.184,39.631 82.577,38.637 82.023,37.663 81.12,36.651 80.265,35.679 79.286,34.848 78.249,34.142 76.17,32.738 73.92,31.83 71.679,31.161 69.436,30.475 67.173,30.059 64.936,29.762 60.442,29.152 56.01,29.098 51.611,29.167 42.823,29.38 34.206,30.372 25.645,31.517 17.083,32.707 8.597,34.031 0,35.5 c 8.666,1.139 17.401,1.101 26.044,0.902 m -132.058,-60.103 c -3.062,-0.257 -6.191,-0.237 -9.257,0.344 -3.038,0.619 -6.074,1.747 -8.344,3.767 5.811,-1.556 11.368,-0.571 16.809,0.742 5.444,1.355 10.779,3.332 16.098,5.415 5.317,2.105 10.606,4.394 15.943,6.694 5.348,2.293 10.704,4.625 16.317,6.739 -4.214,-4.293 -9.01,-7.859 -14.023,-11.071 -5.033,-3.178 -10.343,-5.955 -15.932,-8.175 -5.587,-2.199 -11.468,-3.914 -17.611,-4.455 M -127.25,1.011 c -2.127,0.313 -4.329,0.799 -6.525,2.083 -0.275,0.157 -0.54,0.333 -0.805,0.544 l -0.394,0.301 -0.289,0.269 c -0.371,0.355 -0.75,0.697 -1.113,1.068 -0.732,0.723 -1.419,1.506 -2.09,2.308 -1.337,1.596 -2.554,3.39 -3.259,5.494 -0.35,1.043 -0.493,2.221 -0.269,3.336 0.219,1.117 0.944,2.103 1.87,2.517 -0.647,-0.784 -0.803,-1.749 -0.677,-2.582 0.121,-0.852 0.568,-1.611 1.047,-2.332 1.028,-1.428 2.439,-2.629 3.887,-3.771 0.734,-0.567 1.511,-1.089 2.286,-1.616 0.381,-0.27 0.784,-0.521 1.175,-0.778 0.215,-0.149 0.374,-0.235 0.503,-0.3 0.13,-0.084 0.284,-0.153 0.449,-0.223 1.267,-0.588 3.008,-0.822 4.758,-0.935 3.557,-0.167 7.336,0.209 11.092,0.71 3.766,0.521 7.548,1.21 11.332,1.953 7.572,1.5 15.151,3.261 22.765,4.975 7.632,1.685 15.261,3.462 23.059,4.898 -7,-3.748 -14.323,-6.716 -21.745,-9.42 -7.443,-2.647 -15.04,-4.879 -22.83,-6.541 -3.894,-0.829 -7.836,-1.51 -11.856,-1.926 -4.02,-0.404 -8.114,-0.605 -12.371,-0.032 m -14.383,38.62 c -0.629,0.961 -1.064,2.099 -1.574,3.136 -0.381,1.141 -0.823,2.233 -0.987,3.443 -0.4,2.363 -0.199,4.902 0.831,7.036 1.002,2.134 2.694,3.817 4.634,4.817 -0.77,-0.774 -1.417,-1.632 -1.912,-2.554 -0.526,-0.898 -0.884,-1.867 -1.087,-2.84 -0.405,-1.95 -0.194,-3.903 0.511,-5.698 0.283,-0.912 0.797,-1.768 1.236,-2.624 l 0.84,-1.227 c 0.267,-0.411 0.552,-0.811 0.901,-1.186 0.657,-0.753 1.29,-1.592 1.92,-2.11 0.65,-0.574 1.403,-1.05 2.193,-1.488 3.265,-1.667 7.313,-2.35 11.389,-2.676 4.091,-0.347 8.31,-0.327 12.54,-0.241 8.471,0.196 17.064,0.753 25.706,0.983 8.642,0.199 17.377,0.237 26.044,-0.902 -8.598,-1.469 -17.084,-2.793 -25.647,-3.983 -8.559,-1.145 -17.177,-2.137 -25.966,-2.35 -4.396,-0.069 -8.829,-0.015 -13.322,0.595 -2.239,0.297 -4.5,0.713 -6.745,1.399 -2.242,0.669 -4.49,1.577 -6.569,2.981 -1.036,0.706 -2.017,1.537 -2.87,2.509 -0.905,1.012 -1.458,1.986 -2.066,2.98 m 400.869,-56.362 -7.522,-7.74 c -8.912,25.465 -63.494,75.396 -94.181,92.952 2.017,2.621 3.746,5.501 5.049,8.703 0.323,0.799 0.62,1.593 0.923,2.388 15.516,-5.194 57.847,-23.162 97.37,-73.77 z m -37.871,-38.967 c -11.207,32.194 -52.46,84.952 -79.705,110.881 3.155,1.811 6.211,3.873 9.028,6.231 l 95.665,-91.398 z m -26.874,-27.655 c -16.67,33.609 -45.499,63.625 -66.665,82.827 -2.358,4.977 -4.583,9.594 -6.604,13.743 33.729,-13.952 77.849,-50.608 94.105,-75.129 z m -59.353,67.14 c 19.286,-18.939 41.485,-44.459 54.703,-71.925 l -19.862,-20.436 c -5.606,25.323 -21.08,62.308 -34.841,92.361 m 12.151,-115.711 c -8.564,36.162 -29.47,68.493 -44.127,87.851 0.037,6.384 0.128,13.236 0.258,20.181 17.612,-15.703 45.209,-44.919 60.923,-90.483 z m -21.738,-22.369 c 0.42,11.607 -0.834,23.187 -2.73,34.532 -2.37,13.844 -5.829,27.429 -9.89,40.813 -1.968,6.455 -4.092,12.863 -6.355,19.235 13.625,-19.936 29.257,-47.811 35.485,-77.591 z m -20.302,-20.89 c 3.193,37.241 -10.834,70.577 -15.631,80.712 1.76,0.861 2.766,1.356 2.814,1.377 l 1.888,0.928 c 5.176,-10.252 9.907,-20.729 13.885,-31.46 4.531,-12.358 8.23,-25.107 9.286,-38.125 0.02,-0.261 0.031,-0.523 0.05,-0.784 z m -19.486,38.518 c -0.878,6.875 -2.08,13.762 -3.869,20.781 -0.963,3.528 -1.95,7.055 -3.41,10.764 -0.5,1.391 -1.145,2.85 -1.839,4.33 2.732,1.325 5.199,2.524 7.327,3.563 4.793,-10.358 19.89,-46.967 13.989,-85.457 l -13.177,-13.558 c 1.075,6.144 1.797,12.358 2.204,18.58 0.887,13.587 0.51,27.264 -1.225,40.997 m -25.393,-84.7 c 1.311,46.489 -11.439,90.18 -16.271,104.937 2.001,0.949 3.996,1.9 5.973,2.844 0.257,-0.297 0.517,-0.591 0.793,-0.885 0.661,-0.885 1.385,-1.778 2.07,-2.927 1.412,-2.144 2.725,-4.727 4.014,-7.308 2.517,-5.283 4.732,-10.998 6.668,-16.846 3.878,-11.721 6.658,-24.036 8.257,-36.5 1.3,-10.106 1.73,-20.363 0.905,-30.546 z m -24.006,62.999 c -0.625,6.571 -1.399,13.155 -2.477,19.863 -0.551,3.363 -1.161,6.741 -1.993,10.281 -0.218,0.895 -0.406,1.76 -0.655,2.682 l -0.76,2.681 c 2.497,1.171 5.144,2.418 7.924,3.733 5.128,-15.796 18.283,-61.692 15.423,-108.972 l -18.935,-19.485 c 0.614,3.633 1.123,7.285 1.539,10.947 1.467,12.956 1.889,25.991 1.862,39.038 -0.106,13.047 -0.682,26.103 -1.928,39.232 M -2.764,-286.329 c 19.845,57.516 5.952,124.815 -0.085,148.444 1.962,0.796 4.222,1.755 6.826,2.893 l 0.106,-0.201 c 0.295,-0.578 0.579,-1.237 0.871,-1.853 1.164,-2.52 2.267,-5.29 3.323,-8.1 2.107,-5.649 4.029,-11.543 5.818,-17.499 3.582,-11.929 6.594,-24.162 9.157,-36.493 2.488,-12.34 4.562,-24.815 5.62,-37.381 0.462,-5.509 0.723,-11.043 0.663,-16.576 z m -18.647,-2.515 c 0.148,17.585 1.196,35.178 2.616,52.728 1.439,17.548 3.294,35.069 5.5,52.489 1.112,8.704 2.311,17.393 3.65,25.978 0.653,4.156 1.335,8.3 2.081,12.33 6.735,-29.499 18.294,-99.176 -6.746,-152.894 l -6.851,-7.049 c -0.216,5.465 -0.281,10.945 -0.25,16.418 m -54.109,36.884 c -1.426,5.186 -2.38,10.494 -3.041,15.828 -1.667,13.566 -1.457,27.328 -0.502,40.966 1.003,13.647 2.91,27.237 5.471,40.598 1.293,6.673 2.767,13.299 4.474,19.748 0.863,3.205 1.746,6.412 2.743,9.437 0.475,1.546 1.009,2.982 1.521,4.408 l 0.003,0.008 c 1.877,-0.764 3.731,-1.516 5.553,-2.257 -1.206,-10.965 -9.09,-88.767 2.289,-147.88 z m -39.238,40.578 c -0.131,44.845 10.161,96.478 12.086,105.718 3.388,-1.367 6.814,-2.75 10.248,-4.137 l -0.179,-0.727 -0.594,-3.041 c -0.326,-1.964 -0.656,-3.915 -0.88,-5.793 -0.518,-3.796 -0.843,-7.473 -1.149,-11.154 -0.572,-7.341 -0.849,-14.585 -0.932,-21.816 -0.136,-14.453 0.45,-28.827 1.981,-43.124 1.576,-14.276 3.943,-28.52 8.23,-42.284 0.55,-1.762 1.135,-3.513 1.754,-5.252 z m -16.507,37.164 c 0.636,14.987 2.885,29.914 5.686,44.713 1.947,10.175 4.221,20.295 6.697,30.365 3.352,-1.345 6.803,-2.734 10.314,-4.15 -1.231,-5.703 -11.706,-55.494 -12.462,-101.607 l -9.45,9.774 c -0.955,6.902 -1.039,13.919 -0.785,20.905 m -29.076,9.977 c 2.037,40.665 13.375,71.758 23.561,91.967 -0.326,-3.057 -0.647,-6.115 -0.936,-9.175 -1.465,-15.448 -2.521,-30.936 -2.898,-46.47 -0.343,-15.526 -0.11,-31.128 1.798,-46.636 0.63,-4.881 1.419,-9.761 2.537,-14.571 z m 19.787,115.365 c 1.815,-1.898 3.782,-3.689 5.896,-5.292 -0.061,-0.482 -0.126,-0.965 -0.187,-1.447 -11.226,-18.131 -27.924,-52.82 -31.419,-102.504 l -24.284,25.113 c 13.187,28.848 39.717,67.981 49.994,84.13 m -78.228,-54.929 c 8.071,27.312 39.623,71.157 62.66,95.78 -0.027,-6.373 -0.08,-11.888 0.683,-15.756 0.22,-1.108 0.778,-2.811 1.652,-4.887 -8.846,-15.44 -35.843,-64.171 -43.775,-97.083 z m 60.985,103.104 c -22.796,-23.438 -55.497,-67.459 -65.884,-98.039 l -20.334,21.028 c 17.801,31.495 58.584,74.933 86.218,77.011 m -103.556,-59.08 c 4.098,40.823 59.177,87.672 94.366,100.472 0.175,-0.228 0.345,-0.462 0.515,-0.693 -16.988,-6.731 -67.071,-69.716 -83.761,-111.279 z m 88.207,104.788 c -35.912,-14.839 -85.945,-58.274 -93.67,-99.138 l -21.252,21.978 c 36.568,43.113 85.02,79.246 114.922,77.16 m -129.812,-61.762 -1.139,15.649 c 13.45,24.563 62.9,54.207 98.496,73.078 1.46,-1.101 3.027,-2.11 4.696,-3.029 -30.601,-20.051 -87.935,-74.984 -90.825,-97.311 z m -14.969,282.489 c 31.54,-1.371 72.056,-1.919 88.775,-4.866 21.621,-3.813 37.475,-4.3 38.892,-20.957 -25.569,3.021 -89.175,9.295 -131.579,2.866 l -1.315,18.087 z m 52.285,48.72 c 23.063,-5.607 52.285,-16.923 74.401,-26.395 -19.137,-4.866 -73.786,-9.258 -115.666,-12.055 z m 38.56,35.93 c 11.968,-10.851 30.469,-26.678 41.026,-38.948 6.867,-7.977 8.17,-13.903 2.371,-19.806 -19.129,8.41 -50.179,21.182 -76.492,27.915 z m 24.318,22.661 47.346,-42.955 c -20.435,-3.144 -49.467,13.695 -67.231,24.425 z m 29.802,27.767 c 9.855,-17.107 22.415,-37.673 33.48,-52 9.845,-12.747 -0.09,-13.763 -8.829,-16.722 l -49.859,45.233 z m 26.217,24.428 c 14.03,-18.758 37.744,-50.482 50.313,-67.384 -5.461,-1.48 -11.16,-1.533 -15.94,-0.07 -14.668,4.487 -38.156,28.301 -55.5,47.77 z m 25.073,23.364 c 1.24,-1.245 2.458,-2.512 3.653,-3.802 9.032,-9.875 16.955,-20.703 24.032,-32.019 6.806,-10.875 12.91,-22.187 18.142,-33.751 -0.15,-0.449 -0.282,-0.907 -0.382,-1.386 -1.706,-8.187 -7.322,-14.07 -14.129,-17.477 -12.401,16.688 -37.393,50.119 -51.788,69.362 z m 45.298,42.21 19.587,-103.704 c -2.231,-0.853 -4.455,-1.742 -6.566,-2.719 -6.587,10.209 -14.08,25.561 -21.781,34.827 -8.853,10.664 -18.502,20.696 -29.13,29.567 -1.277,1.055 -2.576,2.088 -3.888,3.1 z m 42.731,39.817 c -1.845,-31.218 -4.408,-83.698 -6.389,-125.216 1.329,-20.567 -3.114,-19.749 -4.819,-7.585 l -25.567,98.535 z M 27.945,481.046 C 25.481,472.526 22.894,459.71 20.459,440.292 19.106,429.505 14.58,410.031 11.567,393.66 10.452,393.504 9.274,393.291 8.05,393.03 -2.593,423.049 -15.968,488.028 -24.162,526.744 Z M 75.514,438.513 C 66,430.83 57.634,421.764 50.163,412.054 43.222,403.045 37.01,393.468 31.535,383.365 c -4.12,0.349 -8.334,-1.172 -9.163,4.392 1.139,24.821 4.721,65.645 10.758,88.742 l 42.88,-37.604 c -0.163,-0.128 -0.333,-0.25 -0.496,-0.382 m 30.343,-25.792 C 87.824,397.607 64.088,371.609 52.279,358.315 c -2.083,-0.108 -3.748,-0.027 -5.093,0.269 -1.348,0.831 -2.673,1.647 -3.975,2.447 -0.493,0.676 -0.898,1.49 -1.25,2.444 0.975,3.647 2.097,7.31 3.343,10.948 3.713,10.821 8.412,21.461 14.003,31.611 5.585,10.16 12.109,19.868 19.948,28.482 0.259,0.283 0.523,0.563 0.787,0.843 z M 65.575,360.095 c -1.372,-0.236 -2.649,-0.448 -3.86,-0.64 14.22,15.726 34.319,36.928 48.885,49.108 l 14.974,-13.134 C 105.283,380.231 79.208,362.431 65.575,360.095 m 89.768,9.227 c -16.746,-9.679 -36.226,-24.419 -49.166,-34.692 -2.283,3.814 -2.333,10.007 2.615,19.903 3.602,7.208 13.821,21.648 23.617,34.902 z m 59.07,-51.802 c -28.219,1.917 -59.811,-5.783 -79.142,-11.673 1.173,3.911 4.635,7.87 11.416,11.153 13.569,6.569 28.472,15.785 40.68,24.238 z m -60.559,-28.755 c -6.058,0.66 -12.532,1.431 -16.207,6.155 -0.617,1.677 -1.212,3.191 -1.774,4.5 20.771,6.353 57.352,15.346 86.742,10.909 l 36.792,-32.267 c -39.748,6.087 -86.879,8.667 -105.553,10.703 M 274.96,199.409 C 238.265,214.231 165.366,220 164.4,234.974 c -0.153,2.376 0.296,4.064 -0.173,6.38 -1.277,6.288 78.617,0.535 112.492,-17.777 z m -68.516,-70.555 c -8.419,3.755 -29.468,11.673 -35.89,13.545 0.368,2.229 0.679,4.45 0.933,6.655 36.953,-4.032 77.912,-25.01 96.764,-41.87 l -1.508,-20.709 c -21.556,22.009 -43.673,34.963 -60.299,42.379 M 263.93,47.793 c -18.185,26.13 -75.119,69.569 -96.363,81.255 0.674,2.355 1.268,4.722 1.785,7.089 20.376,-6.069 66.576,-25.535 96.779,-58.083 z m -95.332,49.164 c 0.116,0.169 0.236,0.338 0.35,0.506 31.238,-5.437 75.504,-38.254 94.489,-56.425 l -1.893,-26.027 c -39.428,48.197 -80.027,65.331 -95.942,70.526 1.241,3.872 2.23,7.682 2.996,11.42 m 102.963,55.727 c -24.781,17.178 -88.473,28.552 -108.802,33.319 -0.509,3.862 -1.061,7.153 -1.546,9.728 19.996,-0.775 86.757,-3.254 112.723,-10.406 z m -107.35,16.687 c -0.152,3.527 -0.396,6.874 -0.696,9.984 21.649,-5.236 85.478,-17.067 107.515,-33.976 l -1.639,-22.526 c -25.734,26.379 -84.896,40.45 -105.18,46.518 m 16.35,177.837 c -22.862,-11.377 -52.415,-23.672 -69.105,-16.907 -0.136,0.056 -0.266,0.124 -0.401,0.183 14.537,11.457 33.869,25.761 49.224,34.509 z M -143.654,-17.351 c 0,0 -10.426,85.846 -23.98,90.017 -11.813,3.635 -36.679,31.415 -26.704,66.239 2.154,5.307 4.449,10.684 6.844,15.827 5.839,12.547 12.272,23.68 18.733,28.91 2.456,-6.572 5.287,-13.307 9.917,-19.128 0.605,-0.747 1.31,-1.427 1.96,-2.137 l 0.994,-1.052 c 0.349,-0.333 0.741,-0.624 1.108,-0.936 l 2.242,-1.832 2.442,-1.526 1.22,-0.752 c 0.419,-0.224 0.859,-0.405 1.288,-0.608 l 2.579,-1.183 c 1.749,-0.686 3.546,-1.213 5.312,-1.794 7.182,-1.947 14.494,-2.488 21.734,-2.722 7.249,-0.272 14.479,0.047 21.687,0.373 -7.216,0.195 -14.435,0.399 -21.581,1.187 -7.128,0.741 -14.278,1.818 -20.911,4.148 -6.635,2.293 -12.479,6.196 -16.349,11.686 -3.804,5.569 -6.048,12.237 -8.012,19.06 0,0 0.488,0.45 2.198,0.367 2.202,-0.105 4.377,-1.13 6.504,-3.257 21.898,-21.895 36.148,-14.25 43.794,-16.683 6.902,-2.196 16.16,-10.877 17.906,-12.553 0.373,-0.556 0.757,-1.101 1.122,-1.663 2.861,-4.458 5.385,-9.174 7.512,-14.08 2.124,-4.905 3.842,-10.018 4.901,-15.316 -0.455,5.385 -1.598,10.732 -3.185,15.943 -1.593,5.214 -3.618,10.312 -6.052,15.246 -2.304,4.653 -4.982,9.161 -8.178,13.398 -0.149,0.926 -0.198,1.689 -0.082,2.15 0.245,0.986 2.053,5.292 3.239,10.698 0,0.002 0.002,0.003 0.002,0.005 0.489,2.239 0.875,4.662 0.996,7.122 6.851,29.192 46.959,51.318 53.764,54.818 -9.821,4.15 -45.775,-24.19 -59.686,-38.653 -2.029,1.683 -4.992,2.2 -8.09,3.897 -24.826,13.61 -47.963,-3.128 -64.644,-18.421 -3.701,-3.117 -9.204,-8.573 -15.162,-15.224 0.036,6.551 -0.38,13.537 -1.839,18.854 3.893,8.441 8.646,16.694 13.866,24.635 5.463,8.3 11.545,16.237 18.222,23.629 6.711,7.328 14.069,14.195 22.569,19.269 4.242,2.512 8.841,4.51 13.723,5.193 4.863,0.814 10.009,-0.249 14.31,-3.023 -3.903,3.261 -9.174,5.092 -14.45,4.842 -5.289,-0.102 -10.448,-1.648 -15.232,-3.757 -9.609,-4.275 -18.121,-10.519 -26.007,-17.291 -4.706,-4.099 -9.187,-8.448 -13.492,-12.972 1.834,8.101 3.18,16.229 4.45,22.922 4.086,21.55 49.505,76.518 108.122,87.017 0.238,0.043 0.47,0.094 0.701,0.149 l 1.406,-0.028 c 28.267,-13.954 40.386,-87.17 40.897,-88.974 l 10.233,0.235 c 17.366,72.973 22.901,77.558 55.358,81.076 62.797,-17.178 93.32,-77.872 100.589,-94.668 0.712,-3.628 1.498,-7.343 2.398,-11.014 0.946,-7.678 0.224,-14.626 -1.701,-20.721 -3.606,5.082 -7.404,9.973 -11.386,14.696 -6.738,7.972 -14.03,15.442 -21.884,22.282 -7.888,6.772 -16.399,13.016 -26.007,17.291 -4.786,2.109 -9.942,3.655 -15.231,3.757 -5.278,0.25 -10.548,-1.581 -14.45,-4.842 4.299,2.774 9.445,3.837 14.309,3.023 4.883,-0.683 9.478,-2.681 13.722,-5.193 8.502,-5.074 15.857,-11.941 22.569,-19.269 6.679,-7.392 12.759,-15.329 18.223,-23.629 4.688,-7.131 9.003,-14.518 12.655,-22.061 -3.196,-3.936 -6.986,-7.137 -11.065,-9.536 -8.82,8.577 -19.416,21.617 -36.62,28.346 -27.512,10.758 -42.248,-3.275 -44.888,-12.546 -0.238,-0.836 -0.326,-1.873 -0.543,-2.959 -28.657,34.077 -52.756,45.965 -48.389,40.59 0,0 33.313,-34.56 45.003,-54.893 -1.148,-4.376 -2.412,-8.878 -3.641,-12.941 -1.057,-2.716 -1.97,-5.404 -2.834,-8.162 -1.167,-3.795 -2.179,-7.632 -2.891,-11.533 -0.697,-3.901 -1.262,-7.832 -1.234,-11.798 0.007,-3.948 0.437,-7.919 1.722,-11.595 -0.693,3.838 -0.485,7.692 0.098,11.446 0.565,3.762 1.697,7.42 2.937,10.999 1.256,3.581 2.792,7.066 4.458,10.468 0.87,1.76 1.79,3.528 2.744,5.255 2.947,1.794 6.277,3.915 9.26,6.032 4.223,2.999 9.654,3.466 14.472,1.57 10.849,-4.268 29.881,-3.035 35.89,9.145 8.394,-4.759 15.379,-7.559 21.193,-9.398 -1.268,-4.191 -3.722,-8.031 -7.081,-11.042 -4.176,-3.791 -9.486,-6.389 -15.063,-7.925 -5.589,-1.529 -11.514,-2.052 -17.338,-1.404 -5.777,0.668 -11.658,2.504 -16.12,6.482 4.223,-4.239 10.103,-6.488 15.973,-7.516 5.922,-1.008 12.048,-0.839 17.979,0.411 5.915,1.269 11.725,3.653 16.601,7.574 2.427,1.956 4.591,4.308 6.289,7 0.721,1.138 1.333,2.343 1.876,3.583 l 14.811,-35.699 c -8.159,-42.836 -54.066,-79.62 -54.066,-79.62 0,0 -4.33,-19.063 -6.85,-38.352 -0.346,0.574 -0.816,1.05 -1.377,1.3 0.646,-0.783 0.801,-1.748 0.674,-2.581 -0.12,-0.852 -0.567,-1.611 -1.044,-2.332 -1.029,-1.428 -2.44,-2.629 -3.89,-3.771 C 76.686,9.679 75.908,9.157 75.133,8.63 74.754,8.36 74.349,8.109 73.958,7.852 73.743,7.703 73.585,7.617 73.456,7.552 73.325,7.468 73.17,7.399 73.007,7.329 71.739,6.741 69.999,6.507 68.249,6.394 64.689,6.227 60.913,6.603 57.156,7.104 53.391,7.625 49.608,8.314 45.823,9.057 38.251,10.557 30.674,12.317 23.058,14.032 15.427,15.717 7.799,17.494 0,18.93 7,15.182 14.322,12.214 21.744,9.51 29.186,6.863 36.786,4.631 44.573,2.969 48.468,2.14 52.412,1.459 56.432,1.043 60.451,0.639 64.545,0.438 68.801,1.011 c 2.129,0.313 4.329,0.799 6.527,2.083 0.274,0.157 0.542,0.333 0.804,0.544 l 0.392,0.301 0.29,0.269 c 0.372,0.355 0.751,0.697 1.113,1.068 0.734,0.723 1.42,1.506 2.092,2.308 0.822,0.981 1.582,2.052 2.222,3.21 -0.867,-8.256 -1.26,-16.136 -0.678,-22.11 2.085,-21.425 -11.469,-36.967 -31.474,-27.583 -18.379,8.621 -63.684,33.505 -70.934,37.498 -1.311,7.683 -0.527,17.115 8.819,26.799 C 7.089,45.208 11.259,52.509 28.638,58.764 46.015,65.019 45.32,83.787 40.802,83.439 36.283,83.093 20.63,59.132 9.334,57.221 5.097,56.502 24.972,73.036 27.752,82.077 c 1.279,4.159 -2.311,9.244 -11.695,5.42 -9.383,-3.822 -26.29,-7.426 -38.878,-7.247 -28.827,0.409 -55.589,11.184 -58.022,1.452 -2.679,-10.716 26.068,-25.024 18.769,-27.109 -7.299,-2.084 -31.28,32.322 -33.366,23.287 -2.084,-9.037 5.327,-20.159 17.433,-26.763 12.109,-6.603 29.138,-12.165 38.178,-25.719 5.284,-7.931 5.098,-19.309 4.87,-28.154 -14.053,-3.099 -35.977,-16.769 -51.348,-29.539 -22.591,-18.769 -57.695,2.084 -57.347,14.944 m -163.434,57.367 c 23.332,14.706 69.924,38.248 95.657,37.391 0.288,-0.332 0.59,-0.65 0.89,-0.972 -33.363,-17.725 -77.486,-44.463 -94.32,-67.047 z m -5.952,81.814 c 15.343,10.291 40.007,16.209 82.913,13.541 -0.671,-3.629 -1.222,-7.278 -1.624,-10.913 -26.511,-7.292 -62.205,-19.925 -78.703,-38.169 z m -6.293,86.499 -2.052,28.192 c 41.381,6.352 105.702,0.028 130.806,-2.897 -5.886,-13.897 -88.084,-13.779 -128.754,-25.295 m 86.868,-100.697 C -255.356,94.76 -287.594,72.705 -308.056,53.31 l -1.705,23.452 c 10.399,16.904 42.674,31.219 77.447,41.039 -0.204,-3.436 -0.259,-6.835 -0.151,-10.169 m -74.659,61.274 c 23.436,9.302 63.575,6.05 86.716,0.068 -1.768,-4.449 -3.437,-9.191 -4.94,-14.114 -17.141,0.093 -62.325,-1.048 -89.03,-14.633 l -1.726,23.724 c 2.435,1.875 5.412,3.539 8.98,4.955 m -11.28,26.662 c 32.564,5.129 93.087,2.114 113.163,0.908 -4.056,-4.648 -8.544,-12.266 -12.694,-21.624 -25.07,6.78 -67.158,9.528 -91.498,-0.13 -2.652,-1.053 -5.046,-2.237 -7.197,-3.542 z m 276.9,-351.066 c 0.151,-9.073 0.463,-18.063 0.863,-27.04 0.814,-17.946 1.995,-35.821 3.599,-53.669 1.623,-17.841 3.625,-35.656 6.537,-53.361 0.614,-3.674 1.277,-7.342 1.99,-11.001 l -20.274,20.964 c -13.345,55.98 -6.094,137.798 -4.471,153.918 4.32,-1.759 8.401,-3.427 12.158,-4.97 -0.065,-0.7 -0.12,-1.369 -0.154,-1.988 l -0.108,-1.913 c -0.115,-2.487 -0.172,-4.852 -0.198,-7.182 -0.054,-4.665 -0.013,-9.213 0.058,-13.758 m 27.769,25.748 c -11.969,5.419 -65.602,27.081 -102.299,41.828 0.03,0.115 0.058,0.23 0.088,0.343 l 18.933,31.197 c 27.987,11.842 41.464,10.073 70.101,12.801 13.317,-0.788 36.251,-2.617 49.39,-6.354 9.052,-2.575 27.093,-6.895 40.941,-12.765 l 18.099,-22.971 c -41.44,-20.271 -86.171,-41.303 -95.253,-44.079 m 293.141,390.272 -2.195,-30.185 c -36.923,18.703 -97.424,22.269 -118.546,22.946 -5.977,12.359 -11.81,12.508 10.601,15.751 20.453,2.961 68.086,-2.079 100.621,-0.161 z M -31.936,582.1 -360.82,275.647 l 22.425,-308.253 315.756,-326.539 317.309,326.512 22.45,308.62 z"
             style="fill:#000000;fill-opacity:1;fill-rule:nonzero;stroke:none"
             id="path1831" />
        </g>
      </g>
    </g>
  </g>
</svg>
