<?xml version="1.0" encoding="utf-8"?>
<!-- Generator: Adobe Illustrator 27.8.0, SVG Export Plug-In . SVG Version: 6.00 Build 0)  -->
<svg version="1.1" id="Layer_2" xmlns="http://www.w3.org/2000/svg" xmlns:xlink="http://www.w3.org/1999/xlink" x="0px" y="0px"
	 viewBox="0 0 1600 1600" style="enable-background:new 0 0 1600 1600;" xml:space="preserve">
<style type="text/css">
	.st0{display:none;fill:none;stroke:#000000;stroke-width:60;stroke-linecap:round;stroke-miterlimit:10;}
	.st1{stroke:#000000;stroke-width:60;stroke-miterlimit:10;}
	.st2{fill:none;}
</style>
<path class="st0" d="M334.31,256.65c41.17,34.74,82.34,69.48,123.52,104.22"/>
<path class="st0" d="M512.31,156.04c44.47,68.28,88.94,136.56,133.41,204.83"/>
<line class="st0" x1="809.65" y1="74.62" x2="809.65" y2="360.87"/>
<path class="st0" d="M1284.83,260.62c-41.17,34.74-82.34,69.48-123.52,104.22"/>
<path class="st0" d="M1106.83,160.01c-44.47,68.28-88.94,136.56-133.41,204.83"/>
<path class="st1" d="M51.55,770h171.61v681.16H53.68c-1.17,0-2.13-1.12-2.13-2.48V770z"/>
<polygon class="st1" points="1027.37,770 1202.71,770 1202.71,1451.16 400.1,1451.16 400.1,770 575.75,770 575.75,1197.49 
	1027.37,1197.49 "/>
<path class="st1" d="M1551.56,770v678.67c0,1.37-0.95,2.48-2.13,2.48h-169.78V770H1551.56z"/>
<path class="st1" d="M1551.45,654.94h-2.89h-524.19V577.7H572.75v77.23H48.55l0,0C48.55,509.98,177.4,183,336.34,183h924.43
	C1419.72,183,1551.45,509.98,1551.45,654.94z"/>
<rect x="223.16" y="866.48" class="st2" width="176.94" height="584.68"/>
<rect x="223.16" y="834.01" class="st2" width="176.94" height="32.47"/>
<rect x="268.99" y="1447.96" class="st2" width="176.94" height="30.91"/>
<rect x="1202.71" y="866.48" class="st2" width="176.94" height="584.68"/>
<rect x="1202.71" y="836.14" class="st2" width="176.94" height="30.33"/>
<rect x="1248.54" y="1447.96" class="st2" width="176.94" height="33.04"/>
<circle class="st1" cx="800.93" cy="824.37" r="86.34"/>
<polygon class="st1" points="800.4,871.8 754.25,1053.53 846.56,1053.53 "/>
</svg>
